<?xml version="1.0" standalone="no"?>
<!DOCTYPE svg PUBLIC "-//W3C//DTD SVG 20010904//EN"
 "http://www.w3.org/TR/2001/REC-SVG-20010904/DTD/svg10.dtd">
<svg version="1.0" xmlns="http://www.w3.org/2000/svg"
 width="134.000000pt" height="132.000000pt" viewBox="0 0 134.000000 132.000000"
 preserveAspectRatio="xMidYMid meet">

<g transform="translate(0.000000,132.000000) scale(0.100000,-0.100000)"
fill="#000000" stroke="none">
<path d="M216 1258 c-25 -7 -58 -29 -87 -58 -69 -70 -71 -82 -67 -565 l3 -410
28 -48 c15 -26 47 -60 69 -75 l42 -27 440 -3 c496 -3 496 -3 560 68 19 21 40
56 46 77 8 26 10 174 8 474 l-3 435 -27 42 c-15 22 -49 54 -75 69 l-48 28
-425 2 c-274 1 -439 -2 -464 -9z m558 -244 c3 -9 6 -45 6 -80 l0 -65 65 36
c35 20 69 34 74 31 15 -10 101 -162 101 -179 0 -10 -23 -30 -55 -48 -30 -17
-57 -35 -60 -39 -3 -5 22 -23 55 -42 37 -20 60 -39 60 -50 0 -26 -92 -178
-109 -178 -8 0 -38 14 -68 30 -29 17 -55 30 -58 30 -3 0 -5 -31 -5 -70 0 -85
-6 -90 -119 -90 -113 0 -111 -1 -111 86 0 41 -3 74 -6 74 -4 0 -32 -14 -64
-32 -31 -17 -64 -29 -72 -26 -19 8 -110 168 -104 184 2 6 32 27 67 46 l62 35
-66 38 c-37 20 -67 41 -67 47 0 18 101 188 112 188 5 0 37 -16 69 -35 33 -19
62 -35 65 -35 2 0 4 33 4 73 0 41 3 77 7 80 3 4 52 7 109 7 84 0 103 -3 108
-16z"/>
<path d="M600 906 c0 -79 -6 -106 -23 -106 -5 0 -41 18 -80 40 -38 22 -71 39
-72 38 -9 -10 -65 -111 -63 -113 2 -1 32 -19 68 -40 67 -40 82 -54 74 -67 -3
-4 -36 -26 -75 -48 l-69 -41 27 -51 c16 -27 33 -52 39 -55 6 -2 38 12 70 31
94 57 104 51 104 -65 l0 -69 65 0 64 0 3 82 c4 100 10 104 96 53 33 -19 64
-35 69 -35 10 0 70 107 63 113 -3 2 -36 21 -73 42 -46 25 -67 43 -65 53 2 9
32 33 68 53 35 21 66 42 68 47 3 9 -45 99 -57 106 -4 3 -38 -13 -75 -35 -37
-23 -74 -38 -82 -35 -11 4 -14 25 -14 91 l0 85 -65 0 -65 0 0 -74z"/>
</g>
</svg>
