<?xml version="1.0" standalone="no"?>
<!DOCTYPE svg PUBLIC "-//W3C//DTD SVG 20010904//EN"
 "http://www.w3.org/TR/2001/REC-SVG-20010904/DTD/svg10.dtd">
<svg version="1.0" xmlns="http://www.w3.org/2000/svg"
 width="327.000000pt" height="205.000000pt" viewBox="0 0 327.000000 205.000000"
 preserveAspectRatio="xMidYMid meet">

<g transform="translate(0.000000,205.000000) scale(0.100000,-0.100000)"
fill="#000000" stroke="none">
<path d="M1190 1981 c-69 -22 -112 -57 -146 -121 -18 -32 -19 -67 -22 -448 -3
-467 -1 -493 64 -557 65 -66 60 -65 538 -65 395 0 434 2 471 19 50 22 101 79
115 128 8 26 10 176 8 469 l-3 431 -30 48 c-21 35 -45 56 -80 74 l-49 26 -421
2 c-231 1 -431 -2 -445 -6z m550 -313 l5 -76 60 35 c42 25 64 32 74 26 8 -5
36 -47 63 -93 54 -95 55 -93 -29 -140 -62 -35 -63 -32 24 -80 23 -13 44 -28
47 -35 4 -11 -81 -166 -102 -187 -7 -7 -32 3 -72 26 -33 20 -63 36 -66 36 -2
0 -4 -31 -4 -68 0 -40 -5 -73 -12 -80 -13 -13 -173 -17 -202 -6 -13 5 -16 22
-16 80 0 41 -3 74 -6 74 -3 0 -34 -16 -68 -35 -59 -33 -64 -34 -78 -17 -31 35
-99 164 -95 176 3 8 31 28 61 46 31 17 56 35 56 38 0 4 -27 22 -60 40 -33 18
-60 38 -60 44 0 18 94 180 107 185 6 3 41 -12 77 -32 l66 -37 0 74 c0 41 3 78
7 82 4 3 54 5 112 4 l106 -3 5 -77z"/>
<path d="M1558 1613 c-2 -70 -6 -88 -19 -91 -8 -1 -46 15 -84 37 l-69 40 -33
-56 c-19 -30 -33 -56 -31 -57 2 -1 36 -21 76 -45 39 -23 72 -45 72 -50 0 -12
-30 -35 -93 -70 l-58 -33 27 -46 c15 -26 30 -51 34 -55 4 -5 39 8 77 29 94 51
103 47 103 -56 l0 -80 65 0 65 0 0 84 c0 61 4 85 13 89 8 3 44 -12 81 -34 37
-21 71 -39 74 -39 11 0 63 100 57 110 -3 4 -35 25 -71 45 -44 25 -64 42 -62
53 3 13 33 35 126 91 11 6 10 15 -6 47 -41 78 -39 78 -114 32 -38 -22 -75 -38
-83 -34 -12 4 -15 24 -15 91 l0 85 -65 0 -64 0 -3 -87z"/>
<path d="M277 630 c-101 -18 -138 -60 -145 -167 -4 -62 -5 -63 -33 -63 -27 0
-29 -3 -29 -40 0 -38 2 -40 30 -40 l30 0 0 -90 0 -90 -30 0 c-28 0 -30 -2 -30
-40 l0 -40 115 0 115 0 0 40 c0 38 -2 40 -30 40 l-30 0 0 90 0 90 40 0 40 0 0
40 0 40 -40 0 -40 0 0 50 c0 76 20 92 118 88 l77 -3 3 -197 2 -198 -25 0 c-23
0 -25 -4 -25 -40 l0 -40 105 0 105 0 0 40 c0 36 -2 40 -25 40 l-25 0 0 239 0
240 -42 5 c-92 11 -185 14 -231 6z"/>
<path d="M1172 624 c-25 -17 -30 -65 -9 -82 13 -11 46 -16 84 -14 29 3 53 28
53 57 0 48 -80 73 -128 39z"/>
<path d="M745 469 c-79 -29 -120 -108 -113 -216 7 -125 56 -184 160 -191 46
-4 65 0 93 17 44 26 45 26 45 1 0 -18 7 -20 80 -20 l80 0 0 40 c0 38 -2 40
-30 40 l-30 0 0 165 0 165 -50 0 c-38 0 -50 -4 -50 -15 0 -19 -10 -19 -38 0
-28 20 -109 28 -147 14z m146 -102 c27 -20 39 -54 39 -106 0 -69 -35 -111 -92
-111 -30 0 -46 7 -69 29 -24 25 -29 37 -29 81 0 84 28 119 95 119 22 0 47 -5
56 -12z"/>
<path d="M1626 470 c-16 -5 -44 -24 -63 -42 l-33 -32 0 37 0 37 -80 0 -80 0 0
-40 c0 -36 3 -40 25 -40 l25 0 0 -125 0 -125 -25 0 c-22 0 -25 -4 -25 -40 l0
-40 105 0 105 0 0 40 c0 37 -2 40 -26 40 l-27 0 5 69 c6 87 33 133 88 155 22
9 49 16 60 16 17 0 20 7 20 50 0 45 -2 50 -22 49 -13 0 -36 -5 -52 -9z"/>
<path d="M1831 469 c-73 -22 -110 -74 -95 -133 9 -37 64 -81 126 -101 70 -23
98 -41 98 -65 0 -33 -57 -50 -117 -34 -17 5 -23 14 -23 35 0 27 -3 29 -40 29
l-40 0 0 -59 0 -59 50 -11 c78 -17 179 -14 220 7 40 20 66 75 56 118 -10 40
-57 78 -125 103 -79 29 -110 54 -95 77 13 22 57 35 95 27 21 -4 30 -13 34 -34
6 -25 11 -29 41 -29 l34 0 0 55 c0 51 -2 56 -27 66 -41 15 -153 20 -192 8z"/>
<path d="M2308 461 c-31 -17 -38 -18 -38 -6 0 12 -16 15 -80 15 l-80 0 0 -40
c0 -36 3 -40 25 -40 l25 0 0 -125 0 -125 -25 0 c-22 0 -25 -4 -25 -40 l0 -40
105 0 105 0 0 40 c0 36 -2 40 -25 40 -25 0 -25 0 -25 99 0 84 3 102 21 125 26
33 71 35 93 4 13 -18 16 -52 16 -165 l0 -143 80 0 80 0 0 40 c0 36 -2 40 -25
40 -25 0 -25 0 -25 99 0 84 3 102 21 125 26 33 71 35 93 4 13 -18 16 -52 16
-165 l0 -143 80 0 80 0 0 40 c0 36 -2 40 -25 40 l-25 0 0 103 c0 122 -10 164
-49 201 -52 50 -162 41 -192 -16 -10 -19 -12 -19 -44 12 -44 42 -104 50 -157
21z"/>
<path d="M2938 469 c-52 -15 -88 -60 -88 -109 0 -55 35 -92 112 -120 83 -30
108 -46 108 -70 0 -33 -57 -50 -117 -34 -17 5 -23 14 -23 35 0 27 -3 29 -40
29 l-40 0 0 -58 0 -59 51 -11 c28 -7 81 -12 117 -12 113 0 168 43 158 123 -6
54 -35 80 -127 118 -86 34 -112 60 -85 87 16 16 93 21 114 8 7 -4 12 -18 12
-32 0 -21 4 -24 40 -24 l40 0 0 54 c0 52 -1 54 -32 66 -47 16 -156 21 -200 9z"/>
<path d="M1120 430 c0 -38 2 -40 30 -40 l30 0 0 -125 0 -125 -30 0 c-28 0 -30
-2 -30 -40 l0 -40 110 0 110 0 0 40 c0 38 -2 40 -30 40 l-30 0 0 165 0 165
-80 0 -80 0 0 -40z"/>
</g>
</svg>
